<svg version="1.0" xmlns="http://www.w3.org/2000/svg" width="1024" height="1024" viewBox="0 0 1024 1024">
<g transform="translate(0,1024) scale(0.1,-0.1)" fill="#000000" stroke="none">
<path d="M4800 10230 c-1102 -71 -2112 -515 -2930 -1290 -818 -774 -1356 -1818 -1543 -2995 -57 -358 -72 -565 -72 -945 0 -380 15 -587 72 -945 187 -1177 725 -2221 1543 -2995 818 -775 1828 -1219 2930 -1290 358 -23 727 -23 1085 0 1102 71 2112 515 2930 1290 818 774 1356 1818 1543 2995 57 358 72 565 72 945 0 380 -15 587 -72 945 -187 1177 -725 2221 -1543 2995 -818 775 -1828 1219 -2930 1290 -358 23 -727 23 -1085 0z"/>
</g>
</svg>
