<?xml version="1.0" encoding="UTF-8"?>
<svg id="Layer_1" data-name="Layer 1" xmlns="http://www.w3.org/2000/svg" xmlns:xlink="http://www.w3.org/1999/xlink" viewBox="0 0 201.45 204.07">
  <defs>
    <style>
      .cls-1 {
        fill: url(#linear-gradient-8);
      }

      .cls-2 {
        fill: url(#linear-gradient-7);
      }

      .cls-4 {
        fill: url(#linear-gradient-6);
      }

      .cls-5 {
        fill: url(#linear-gradient-9);
      }

      .cls-6 {
        fill: url(#linear-gradient-4);
      }

      .cls-7 {
        fill: url(#linear-gradient-3);
      }

      .cls-8 {
        fill: url(#linear-gradient-2);
      }

      .cls-9 {
        fill: url(#linear-gradient);
      }

      .cls-10 {
        fill: #fff;
      }

      .cls-11 {
        fill: url(#linear-gradient-10);
      }
    </style>
    <linearGradient id="linear-gradient" x1="59.2" y1="85.89" x2="153.79" y2="85.89" gradientUnits="userSpaceOnUse">
      <stop offset="0" stop-color="#5ca3d9"/>
      <stop offset="1" stop-color="#9055a2"/>
    </linearGradient>
    <linearGradient id="linear-gradient-2" x1="59.2" y1="128.91" x2="153.79" y2="128.91" xlink:href="#linear-gradient"/>
    <linearGradient id="linear-gradient-3" y1="75.86" x2="153.79" y2="75.86" xlink:href="#linear-gradient"/>
    <linearGradient id="linear-gradient-4" x1="59.2" y1="123.91" x2="153.79" y2="123.91" xlink:href="#linear-gradient"/>
    <linearGradient id="linear-gradient-6" x1="92.58" y1="170.96" x2="149.78" y2="170.96" xlink:href="#linear-gradient"/>
    <linearGradient id="linear-gradient-7" x1="92.58" y1="170.96" x2="149.78" y2="170.96" xlink:href="#linear-gradient"/>
    <linearGradient id="linear-gradient-8" x1="92.58" y1="170.96" x2="149.78" y2="170.96" xlink:href="#linear-gradient"/>
    <linearGradient id="linear-gradient-9" x1="92.58" y1="170.96" x2="149.78" y2="170.96" xlink:href="#linear-gradient"/>
    <linearGradient id="linear-gradient-10" x1="92.58" y1="170.96" x2="149.78" y2="170.96" xlink:href="#linear-gradient"/>
  </defs>
  <g>
    <path class="cls-9" d="M118.7,92.41c-.84.36-1.02,3.13-1.14,4.05-.72,5.37-.36,18.39-8.9,17.37-8.39-1-6.48-13.26-7.11-19.28-.34-3.27-.84-7-1.41-10.23-.14-.76-.11-2.96-1.03-2.94l-3.96,34.94c-.76,4.01-4.07,6.93-7.99,4.26-5.04-3.42-4.44-17.03-6.43-22.66l-3.06,6.43c-2.13,2.72-6.1,4.04-9.5,4.04-2.42,0-11.83-.98-12.47-3.55-.09-5.26,6.02-2.21,9.39-2,1.66.11,5.72.26,7.06-.34,3.52-1.58,2.89-11.42,7.81-12.44,3.88-.8,4.43,2.54,5.37,5.41,1.96,6,2.15,12.42,3.69,18.37.18.7-.04,1.99.9,1.84,1.99-11.71,1.79-24.65,4.58-36.16.84-3.49,3.72-11.15,7.97-6.09,4.94,5.9,3.79,33.1,5.81,34.62.64.48,1.26.39,1.89,0,2.97-1.84.72-20.7,7.05-21.78,7.58-1.29,6.53,13.45,9.62,16.38,5.53,5.25,8.41-9.11,8.44-12.43.4-36.45-47.78-49.28-60.07-14.07-1.05,3.02-1.35,11.04-4.56,10.75-4.44-.4-.98-10.93-.02-13.5,11.29-30.15,51.45-31.08,65.15-2.06,4.18,8.86,8.07,30.38-2.55,35.87-10.08,5.21-13.59-7.33-14.52-14.82Z"/>
    <path class="cls-8" d="M123.42,112.72c7.36-2.24.36,10.9-.93,13.17-14.66,25.81-48.93,26.84-60.44-2.26-.55-1.38-2.1-5.31-2.15-6.49-.09-2.12,2.65-4.07,4.26-2.38,1.03,1.08,4.04,10.04,5.65,12.74,6.92,11.57,18.78,15.05,31.45,10.87,9.54-3.15,15.02-11.46,19.19-20.02.81-1.66,1.22-5.1,2.96-5.63Z"/>
    <path class="cls-7" d="M125.59,90.42c-.4-.36-1.98-8.49-2.75-10.43-8.56-21.76-35.71-17.64-39.02,4.79-9.45,2.35-1.74-11.83.87-15.06,15.83-19.63,45.42-4.95,45.08,17.46-.04,2.8-1.94,5.26-4.19,3.23Z"/>
    <path class="cls-6" d="M74.43,113.32c3.2-.44,3.53,5.71,4.61,8.02,4.6,9.78,18.22,10.19,25.28,2.94,1.52-1.56,4.81-8.51,7.34-4.31,2.22,3.69-4.72,9.75-7.64,11.36-11.52,6.35-26.2,3.36-30.68-9.8-.83-2.44-2.74-7.68,1.09-8.21Z"/>
  </g>
  <g>
    <path class="cls-10" d="M49.16,167.45v10.71h-4.62v-10.71h-4.73v-3.68h14.06v3.68h-4.71Z"/>
    <path class="cls-10" d="M68.92,170.57c-.47.71-1.16,1.23-2.07,1.57l3.2,6.02h-5.19l-2.55-5.25h-1.71v5.25h-4.62v-14.39h8.8c1.03,0,1.91.2,2.65.6.73.4,1.28.93,1.65,1.61s.55,1.41.55,2.21c0,.88-.24,1.67-.71,2.38ZM64.55,167.43c-.25-.25-.56-.38-.92-.38h-3.03v2.66h3.03c.36,0,.67-.13.92-.39.25-.26.38-.58.38-.95s-.13-.69-.38-.94Z"/>
    <path class="cls-10" d="M84.36,176.86c-1.24,1.03-3.01,1.55-5.29,1.55s-4.05-.52-5.3-1.55c-1.25-1.03-1.87-2.53-1.87-4.5v-8.6h4.62v8.53c0,.81.22,1.45.65,1.93.43.48,1.06.72,1.88.72s1.45-.24,1.89-.73c.44-.49.66-1.13.66-1.92v-8.53h4.62v8.6c0,1.97-.62,3.47-1.86,4.5Z"/>
  </g>
  <g>
    <path class="cls-4" d="M89.52,178.16v-14.39h4.62v14.39h-4.62Z"/>
    <path class="cls-2" d="M107.74,178.16l-6.04-6.99v6.99h-4.25v-14.39h4.04l6.04,7.09v-7.09h4.25v14.39h-4.04Z"/>
    <path class="cls-1" d="M128.66,170.96c0,4.8-2.52,7.19-7.55,7.19h-6.23v-14.39h6.23c5.03,0,7.55,2.4,7.55,7.2ZM119.49,174.71h1.53c1.94,0,2.91-1.04,2.91-3.12v-1.25c0-2.08-.97-3.12-2.91-3.12h-1.53v7.49Z"/>
    <path class="cls-5" d="M131.14,163.77h12.44v3.45h-7.82v1.99h6.69v3.3h-6.69v2.2h7.97v3.45h-12.59v-14.39Z"/>
    <path class="cls-11" d="M146.25,163.77h12.44v3.45h-7.82v1.99h6.69v3.3h-6.69v2.2h7.97v3.45h-12.59v-14.39Z"/>
  </g>
</svg>